<mxfile host="65bd71144e">
    <diagram id="oRTWNPzX1JsmFe5zqq2H" name="PÃ¡gina-2">
        <mxGraphModel dx="761" dy="1380" grid="1" gridSize="10" guides="1" tooltips="1" connect="1" arrows="1" fold="1" page="1" pageScale="1" pageWidth="1169" pageHeight="827" math="0" shadow="0">
            <root>
                <mxCell id="a-avhTzjWlf2piI5JXZ5-0"/>
                <mxCell id="a-avhTzjWlf2piI5JXZ5-1" parent="a-avhTzjWlf2piI5JXZ5-0"/>
                <mxCell id="a-avhTzjWlf2piI5JXZ5-2" value="User" style="swimlane;fontStyle=0;childLayout=stackLayout;horizontal=1;startSize=26;fillColor=none;horizontalStack=0;resizeParent=1;resizeParentMax=0;resizeLast=0;collapsible=1;marginBottom=0;" parent="a-avhTzjWlf2piI5JXZ5-1" vertex="1">
                    <mxGeometry x="316" y="179" width="140" height="182" as="geometry"/>
                </mxCell>
                <mxCell id="a-avhTzjWlf2piI5JXZ5-3" value="-id*: ObjectId" style="text;strokeColor=none;fillColor=none;align=left;verticalAlign=top;spacingLeft=4;spacingRight=4;overflow=hidden;rotatable=0;points=[[0,0.5],[1,0.5]];portConstraint=eastwest;" parent="a-avhTzjWlf2piI5JXZ5-2" vertex="1">
                    <mxGeometry y="26" width="140" height="26" as="geometry"/>
                </mxCell>
                <mxCell id="a-avhTzjWlf2piI5JXZ5-4" value="name*: String" style="text;strokeColor=none;fillColor=none;align=left;verticalAlign=top;spacingLeft=4;spacingRight=4;overflow=hidden;rotatable=0;points=[[0,0.5],[1,0.5]];portConstraint=eastwest;" parent="a-avhTzjWlf2piI5JXZ5-2" vertex="1">
                    <mxGeometry y="52" width="140" height="26" as="geometry"/>
                </mxCell>
                <mxCell id="a-avhTzjWlf2piI5JXZ5-5" value="email*: String" style="text;strokeColor=none;fillColor=none;align=left;verticalAlign=top;spacingLeft=4;spacingRight=4;overflow=hidden;rotatable=0;points=[[0,0.5],[1,0.5]];portConstraint=eastwest;" parent="a-avhTzjWlf2piI5JXZ5-2" vertex="1">
                    <mxGeometry y="78" width="140" height="26" as="geometry"/>
                </mxCell>
                <mxCell id="a-avhTzjWlf2piI5JXZ5-6" value="password_hash*: String" style="text;strokeColor=none;fillColor=none;align=left;verticalAlign=top;spacingLeft=4;spacingRight=4;overflow=hidden;rotatable=0;points=[[0,0.5],[1,0.5]];portConstraint=eastwest;" parent="a-avhTzjWlf2piI5JXZ5-2" vertex="1">
                    <mxGeometry y="104" width="140" height="26" as="geometry"/>
                </mxCell>
                <mxCell id="a-avhTzjWlf2piI5JXZ5-7" value="is_admin*: Boolean" style="text;strokeColor=none;fillColor=none;align=left;verticalAlign=top;spacingLeft=4;spacingRight=4;overflow=hidden;rotatable=0;points=[[0,0.5],[1,0.5]];portConstraint=eastwest;" parent="a-avhTzjWlf2piI5JXZ5-2" vertex="1">
                    <mxGeometry y="130" width="140" height="26" as="geometry"/>
                </mxCell>
                <mxCell id="a-avhTzjWlf2piI5JXZ5-8" value="created_at*: Date&#10;" style="text;strokeColor=none;fillColor=none;align=left;verticalAlign=top;spacingLeft=4;spacingRight=4;overflow=hidden;rotatable=0;points=[[0,0.5],[1,0.5]];portConstraint=eastwest;" parent="a-avhTzjWlf2piI5JXZ5-2" vertex="1">
                    <mxGeometry y="156" width="140" height="26" as="geometry"/>
                </mxCell>
                <mxCell id="a-avhTzjWlf2piI5JXZ5-9" value="Assessment&#10;" style="swimlane;fontStyle=0;childLayout=stackLayout;horizontal=1;startSize=26;fillColor=none;horizontalStack=0;resizeParent=1;resizeParentMax=0;resizeLast=0;collapsible=1;marginBottom=0;" parent="a-avhTzjWlf2piI5JXZ5-1" vertex="1">
                    <mxGeometry x="596" y="179" width="140" height="208" as="geometry"/>
                </mxCell>
                <mxCell id="a-avhTzjWlf2piI5JXZ5-10" value="-_id*: ObjectId" style="text;strokeColor=none;fillColor=none;align=left;verticalAlign=top;spacingLeft=4;spacingRight=4;overflow=hidden;rotatable=0;points=[[0,0.5],[1,0.5]];portConstraint=eastwest;" parent="a-avhTzjWlf2piI5JXZ5-9" vertex="1">
                    <mxGeometry y="26" width="140" height="26" as="geometry"/>
                </mxCell>
                <mxCell id="a-avhTzjWlf2piI5JXZ5-11" value="user*: ObjectId" style="text;strokeColor=none;fillColor=none;align=left;verticalAlign=top;spacingLeft=4;spacingRight=4;overflow=hidden;rotatable=0;points=[[0,0.5],[1,0.5]];portConstraint=eastwest;" parent="a-avhTzjWlf2piI5JXZ5-9" vertex="1">
                    <mxGeometry y="52" width="140" height="26" as="geometry"/>
                </mxCell>
                <mxCell id="a-avhTzjWlf2piI5JXZ5-12" value="+ name*: String" style="text;strokeColor=none;fillColor=none;align=left;verticalAlign=top;spacingLeft=4;spacingRight=4;overflow=hidden;rotatable=0;points=[[0,0.5],[1,0.5]];portConstraint=eastwest;" parent="a-avhTzjWlf2piI5JXZ5-9" vertex="1">
                    <mxGeometry y="78" width="140" height="26" as="geometry"/>
                </mxCell>
                <mxCell id="a-avhTzjWlf2piI5JXZ5-13" value="+ object*: String&#10;" style="text;strokeColor=none;fillColor=none;align=left;verticalAlign=top;spacingLeft=4;spacingRight=4;overflow=hidden;rotatable=0;points=[[0,0.5],[1,0.5]];portConstraint=eastwest;" parent="a-avhTzjWlf2piI5JXZ5-9" vertex="1">
                    <mxGeometry y="104" width="140" height="26" as="geometry"/>
                </mxCell>
                <mxCell id="a-avhTzjWlf2piI5JXZ5-14" value="+ description: String&#10;" style="text;strokeColor=none;fillColor=none;align=left;verticalAlign=top;spacingLeft=4;spacingRight=4;overflow=hidden;rotatable=0;points=[[0,0.5],[1,0.5]];portConstraint=eastwest;" parent="a-avhTzjWlf2piI5JXZ5-9" vertex="1">
                    <mxGeometry y="130" width="140" height="26" as="geometry"/>
                </mxCell>
                <mxCell id="a-avhTzjWlf2piI5JXZ5-15" value="+ created_at*: Date&#10;" style="text;strokeColor=none;fillColor=none;align=left;verticalAlign=top;spacingLeft=4;spacingRight=4;overflow=hidden;rotatable=0;points=[[0,0.5],[1,0.5]];portConstraint=eastwest;" parent="a-avhTzjWlf2piI5JXZ5-9" vertex="1">
                    <mxGeometry y="156" width="140" height="26" as="geometry"/>
                </mxCell>
                <mxCell id="a-avhTzjWlf2piI5JXZ5-16" value="finished_at: Date" style="text;strokeColor=none;fillColor=none;align=left;verticalAlign=top;spacingLeft=4;spacingRight=4;overflow=hidden;rotatable=0;points=[[0,0.5],[1,0.5]];portConstraint=eastwest;" parent="a-avhTzjWlf2piI5JXZ5-9" vertex="1">
                    <mxGeometry y="182" width="140" height="26" as="geometry"/>
                </mxCell>
                <mxCell id="a-avhTzjWlf2piI5JXZ5-17" value="n" style="endArrow=open;html=1;endSize=12;startArrow=diamondThin;startSize=14;startFill=1;edgeStyle=orthogonalEdgeStyle;align=left;verticalAlign=bottom;" parent="a-avhTzjWlf2piI5JXZ5-1" edge="1">
                    <mxGeometry x="-0.8571" y="-7" relative="1" as="geometry">
                        <mxPoint x="596" y="256.5" as="sourcePoint"/>
                        <mxPoint x="456.0000000000002" y="257" as="targetPoint"/>
                        <Array as="points">
                            <mxPoint x="486" y="256.5"/>
                            <mxPoint x="486" y="256.5"/>
                        </Array>
                        <mxPoint as="offset"/>
                    </mxGeometry>
                </mxCell>
                <mxCell id="a-avhTzjWlf2piI5JXZ5-18" value="Answer" style="swimlane;fontStyle=0;childLayout=stackLayout;horizontal=1;startSize=26;fillColor=none;horizontalStack=0;resizeParent=1;resizeParentMax=0;resizeLast=0;collapsible=1;marginBottom=0;" parent="a-avhTzjWlf2piI5JXZ5-1" vertex="1">
                    <mxGeometry x="916" y="179" width="140" height="182" as="geometry"/>
                </mxCell>
                <mxCell id="a-avhTzjWlf2piI5JXZ5-19" value="_id*: ObjectId" style="text;strokeColor=none;fillColor=none;align=left;verticalAlign=top;spacingLeft=4;spacingRight=4;overflow=hidden;rotatable=0;points=[[0,0.5],[1,0.5]];portConstraint=eastwest;" parent="a-avhTzjWlf2piI5JXZ5-18" vertex="1">
                    <mxGeometry y="26" width="140" height="26" as="geometry"/>
                </mxCell>
                <mxCell id="a-avhTzjWlf2piI5JXZ5-20" value="assessment*: ObjectId" style="text;strokeColor=none;fillColor=none;align=left;verticalAlign=top;spacingLeft=4;spacingRight=4;overflow=hidden;rotatable=0;points=[[0,0.5],[1,0.5]];portConstraint=eastwest;" parent="a-avhTzjWlf2piI5JXZ5-18" vertex="1">
                    <mxGeometry y="52" width="140" height="26" as="geometry"/>
                </mxCell>
                <mxCell id="a-avhTzjWlf2piI5JXZ5-21" value="question*: ObjectId" style="text;strokeColor=none;fillColor=none;align=left;verticalAlign=top;spacingLeft=4;spacingRight=4;overflow=hidden;rotatable=0;points=[[0,0.5],[1,0.5]];portConstraint=eastwest;" parent="a-avhTzjWlf2piI5JXZ5-18" vertex="1">
                    <mxGeometry y="78" width="140" height="26" as="geometry"/>
                </mxCell>
                <mxCell id="a-avhTzjWlf2piI5JXZ5-22" value="answer*: String" style="text;strokeColor=none;fillColor=none;align=left;verticalAlign=top;spacingLeft=4;spacingRight=4;overflow=hidden;rotatable=0;points=[[0,0.5],[1,0.5]];portConstraint=eastwest;" parent="a-avhTzjWlf2piI5JXZ5-18" vertex="1">
                    <mxGeometry y="104" width="140" height="26" as="geometry"/>
                </mxCell>
                <mxCell id="a-avhTzjWlf2piI5JXZ5-23" value="comment: String" style="text;strokeColor=none;fillColor=none;align=left;verticalAlign=top;spacingLeft=4;spacingRight=4;overflow=hidden;rotatable=0;points=[[0,0.5],[1,0.5]];portConstraint=eastwest;" parent="a-avhTzjWlf2piI5JXZ5-18" vertex="1">
                    <mxGeometry y="130" width="140" height="26" as="geometry"/>
                </mxCell>
                <mxCell id="a-avhTzjWlf2piI5JXZ5-24" value="answered_at*: Date" style="text;strokeColor=none;fillColor=none;align=left;verticalAlign=top;spacingLeft=4;spacingRight=4;overflow=hidden;rotatable=0;points=[[0,0.5],[1,0.5]];portConstraint=eastwest;" parent="a-avhTzjWlf2piI5JXZ5-18" vertex="1">
                    <mxGeometry y="156" width="140" height="26" as="geometry"/>
                </mxCell>
                <mxCell id="a-avhTzjWlf2piI5JXZ5-25" value="1" style="endArrow=open;html=1;endSize=12;startArrow=diamondThin;startSize=14;startFill=1;edgeStyle=orthogonalEdgeStyle;align=left;verticalAlign=bottom;exitX=0;exitY=0.5;exitDx=0;exitDy=0;" parent="a-avhTzjWlf2piI5JXZ5-1" source="a-avhTzjWlf2piI5JXZ5-22" edge="1">
                    <mxGeometry x="-0.7508" y="-10" relative="1" as="geometry">
                        <mxPoint x="886" y="293" as="sourcePoint"/>
                        <mxPoint x="736" y="296" as="targetPoint"/>
                        <mxPoint as="offset"/>
                    </mxGeometry>
                </mxCell>
                <mxCell id="a-avhTzjWlf2piI5JXZ5-26" value="Question" style="swimlane;fontStyle=0;childLayout=stackLayout;horizontal=1;startSize=26;fillColor=none;horizontalStack=0;resizeParent=1;resizeParentMax=0;resizeLast=0;collapsible=1;marginBottom=0;" parent="a-avhTzjWlf2piI5JXZ5-1" vertex="1">
                    <mxGeometry x="906" y="499" width="160" height="156" as="geometry"/>
                </mxCell>
                <mxCell id="a-avhTzjWlf2piI5JXZ5-27" value="_id*: ObjectId" style="text;strokeColor=none;fillColor=none;align=left;verticalAlign=top;spacingLeft=4;spacingRight=4;overflow=hidden;rotatable=0;points=[[0,0.5],[1,0.5]];portConstraint=eastwest;" parent="a-avhTzjWlf2piI5JXZ5-26" vertex="1">
                    <mxGeometry y="26" width="160" height="26" as="geometry"/>
                </mxCell>
                <mxCell id="a-avhTzjWlf2piI5JXZ5-28" value="criterion*: ObjectId" style="text;strokeColor=none;fillColor=none;align=left;verticalAlign=top;spacingLeft=4;spacingRight=4;overflow=hidden;rotatable=0;points=[[0,0.5],[1,0.5]];portConstraint=eastwest;" parent="a-avhTzjWlf2piI5JXZ5-26" vertex="1">
                    <mxGeometry y="52" width="160" height="26" as="geometry"/>
                </mxCell>
                <mxCell id="a-avhTzjWlf2piI5JXZ5-29" value="order*: Number" style="text;strokeColor=none;fillColor=none;align=left;verticalAlign=top;spacingLeft=4;spacingRight=4;overflow=hidden;rotatable=0;points=[[0,0.5],[1,0.5]];portConstraint=eastwest;" parent="a-avhTzjWlf2piI5JXZ5-26" vertex="1">
                    <mxGeometry y="78" width="160" height="26" as="geometry"/>
                </mxCell>
                <mxCell id="a-avhTzjWlf2piI5JXZ5-30" value="enunciation*: String" style="text;strokeColor=none;fillColor=none;align=left;verticalAlign=top;spacingLeft=4;spacingRight=4;overflow=hidden;rotatable=0;points=[[0,0.5],[1,0.5]];portConstraint=eastwest;" parent="a-avhTzjWlf2piI5JXZ5-26" vertex="1">
                    <mxGeometry y="104" width="160" height="26" as="geometry"/>
                </mxCell>
                <mxCell id="a-avhTzjWlf2piI5JXZ5-31" value="glosary_refs: {ObjectId}" style="text;strokeColor=none;fillColor=none;align=left;verticalAlign=top;spacingLeft=4;spacingRight=4;overflow=hidden;rotatable=0;points=[[0,0.5],[1,0.5]];portConstraint=eastwest;" parent="a-avhTzjWlf2piI5JXZ5-26" vertex="1">
                    <mxGeometry y="130" width="160" height="26" as="geometry"/>
                </mxCell>
                <mxCell id="a-avhTzjWlf2piI5JXZ5-32" value="1" style="endArrow=open;html=1;endSize=12;startArrow=diamondThin;startSize=14;startFill=0;edgeStyle=orthogonalEdgeStyle;align=left;verticalAlign=bottom;exitX=0.502;exitY=1.038;exitDx=0;exitDy=0;exitPerimeter=0;" parent="a-avhTzjWlf2piI5JXZ5-1" source="a-avhTzjWlf2piI5JXZ5-24" edge="1">
                    <mxGeometry x="-0.7463" y="10" relative="1" as="geometry">
                        <mxPoint x="1006" y="439" as="sourcePoint"/>
                        <mxPoint x="986" y="496" as="targetPoint"/>
                        <Array as="points">
                            <mxPoint x="986" y="496"/>
                        </Array>
                        <mxPoint as="offset"/>
                    </mxGeometry>
                </mxCell>
                <mxCell id="a-avhTzjWlf2piI5JXZ5-33" value="Criterion" style="swimlane;fontStyle=0;childLayout=stackLayout;horizontal=1;startSize=26;fillColor=none;horizontalStack=0;resizeParent=1;resizeParentMax=0;resizeLast=0;collapsible=1;marginBottom=0;" parent="a-avhTzjWlf2piI5JXZ5-1" vertex="1">
                    <mxGeometry x="1186" y="499" width="140" height="130" as="geometry"/>
                </mxCell>
                <mxCell id="a-avhTzjWlf2piI5JXZ5-34" value="_id*: ObjectId" style="text;strokeColor=none;fillColor=none;align=left;verticalAlign=top;spacingLeft=4;spacingRight=4;overflow=hidden;rotatable=0;points=[[0,0.5],[1,0.5]];portConstraint=eastwest;" parent="a-avhTzjWlf2piI5JXZ5-33" vertex="1">
                    <mxGeometry y="26" width="140" height="26" as="geometry"/>
                </mxCell>
                <mxCell id="a-avhTzjWlf2piI5JXZ5-35" value="order*: Number" style="text;strokeColor=none;fillColor=none;align=left;verticalAlign=top;spacingLeft=4;spacingRight=4;overflow=hidden;rotatable=0;points=[[0,0.5],[1,0.5]];portConstraint=eastwest;" parent="a-avhTzjWlf2piI5JXZ5-33" vertex="1">
                    <mxGeometry y="52" width="140" height="26" as="geometry"/>
                </mxCell>
                <mxCell id="a-avhTzjWlf2piI5JXZ5-36" value="name*: String" style="text;strokeColor=none;fillColor=none;align=left;verticalAlign=top;spacingLeft=4;spacingRight=4;overflow=hidden;rotatable=0;points=[[0,0.5],[1,0.5]];portConstraint=eastwest;" parent="a-avhTzjWlf2piI5JXZ5-33" vertex="1">
                    <mxGeometry y="78" width="140" height="26" as="geometry"/>
                </mxCell>
                <mxCell id="a-avhTzjWlf2piI5JXZ5-37" value="description*: String" style="text;strokeColor=none;fillColor=none;align=left;verticalAlign=top;spacingLeft=4;spacingRight=4;overflow=hidden;rotatable=0;points=[[0,0.5],[1,0.5]];portConstraint=eastwest;" parent="a-avhTzjWlf2piI5JXZ5-33" vertex="1">
                    <mxGeometry y="104" width="140" height="26" as="geometry"/>
                </mxCell>
                <mxCell id="a-avhTzjWlf2piI5JXZ5-38" value="1" style="endArrow=open;html=1;endSize=12;startArrow=diamondThin;startSize=14;startFill=1;edgeStyle=orthogonalEdgeStyle;align=left;verticalAlign=bottom;" parent="a-avhTzjWlf2piI5JXZ5-1" source="a-avhTzjWlf2piI5JXZ5-26" edge="1">
                    <mxGeometry x="-1" y="3" relative="1" as="geometry">
                        <mxPoint x="1086" y="576.5" as="sourcePoint"/>
                        <mxPoint x="1180" y="577" as="targetPoint"/>
                    </mxGeometry>
                </mxCell>
                <mxCell id="a-avhTzjWlf2piI5JXZ5-39" value="Glossary" style="swimlane;fontStyle=0;childLayout=stackLayout;horizontal=1;startSize=26;fillColor=none;horizontalStack=0;resizeParent=1;resizeParentMax=0;resizeLast=0;collapsible=1;marginBottom=0;" parent="a-avhTzjWlf2piI5JXZ5-1" vertex="1">
                    <mxGeometry x="596" y="539" width="140" height="104" as="geometry"/>
                </mxCell>
                <mxCell id="a-avhTzjWlf2piI5JXZ5-40" value="_id*: ObjectId" style="text;strokeColor=none;fillColor=none;align=left;verticalAlign=top;spacingLeft=4;spacingRight=4;overflow=hidden;rotatable=0;points=[[0,0.5],[1,0.5]];portConstraint=eastwest;" parent="a-avhTzjWlf2piI5JXZ5-39" vertex="1">
                    <mxGeometry y="26" width="140" height="26" as="geometry"/>
                </mxCell>
                <mxCell id="a-avhTzjWlf2piI5JXZ5-41" value="entry*: String" style="text;strokeColor=none;fillColor=none;align=left;verticalAlign=top;spacingLeft=4;spacingRight=4;overflow=hidden;rotatable=0;points=[[0,0.5],[1,0.5]];portConstraint=eastwest;" parent="a-avhTzjWlf2piI5JXZ5-39" vertex="1">
                    <mxGeometry y="52" width="140" height="26" as="geometry"/>
                </mxCell>
                <mxCell id="a-avhTzjWlf2piI5JXZ5-42" value="description*: String" style="text;strokeColor=none;fillColor=none;align=left;verticalAlign=top;spacingLeft=4;spacingRight=4;overflow=hidden;rotatable=0;points=[[0,0.5],[1,0.5]];portConstraint=eastwest;" parent="a-avhTzjWlf2piI5JXZ5-39" vertex="1">
                    <mxGeometry y="78" width="140" height="26" as="geometry"/>
                </mxCell>
                <mxCell id="a-avhTzjWlf2piI5JXZ5-43" value="1" style="endArrow=open;html=1;endSize=12;startArrow=diamondThin;startSize=14;startFill=0;edgeStyle=orthogonalEdgeStyle;align=left;verticalAlign=bottom;exitX=1;exitY=0.5;exitDx=0;exitDy=0;" parent="a-avhTzjWlf2piI5JXZ5-1" source="a-avhTzjWlf2piI5JXZ5-40" target="a-avhTzjWlf2piI5JXZ5-26" edge="1">
                    <mxGeometry x="-1" y="3" relative="1" as="geometry">
                        <mxPoint x="746" y="576.41" as="sourcePoint"/>
                        <mxPoint x="906" y="576.41" as="targetPoint"/>
                    </mxGeometry>
                </mxCell>
                <mxCell id="a-avhTzjWlf2piI5JXZ5-44" value="" style="shape=stencil(lVrbcls3DPwav2J4B/Gcpv+RmTi1p66dcdzb3xeqhoqEPdojvcnSkiZBALsA+VA//Xj68v3xoaQfH+9vvz/+/fz14+mh/vJQyvPr0+P784d/eqifH+qnb2/vj7+9v/35+vX49/cvB+Th0x9vfx1m+Oc4rg3J/TCqpH+P33TJ9v8Xvx7xL8+v5/guli7wTXRQfKkBPybBN0ka8EUJvkobAZ/Yeoq0y/VX0UrwOdrH/2G+jq8W7VMlJYKfMi7nLzIYXuP6Cz2vOqRezp/FOsH7eVnAK1tPk1oDvjeCh/PKUok/VDdHXE9l68ky43ooPonBejg+pTvwxSS1e/BT0rwHr5LKPfh+3349nOyu/VYx2C85X3dfi/ttJH4P7h73y/zNfy7R/0ch+CQtrkdJfGUTzXfEV57RPr4hkk8cXzTgK5tfV/r4ie9kv3mIlYBn+TwDX9TlsNt4yCc8f2bIJzw/5438n4k/5BLt43zE5s/r5zN+ZOtPMjTgGd+ZzEv3Gctfr8BDNhkrPDfh4DxKNwu+M6USXwDXMcmEqoGJbIX+JryLXq7dTTspPhJXXjNsMzsEbpFJIsX9KhBLlcmYQjQkniaTMa/UsF9P1UxpAFE4FZD5y8pjJ7x7B8u00kPit5Uar+DLpT09lSrFB+I6fEPsmSFRVcpEIAT8BDvL5CvPnPBuf+I/kBg8fJhSPfHUCT+lU3wLeONMFMPLpVBimQoSuZ8g8X8QSgcpRzJtivHrUlEpvl/6cz1JlSv4GvAqmfhbWjr5hPfsRuzp+CDkTQaxJwjDlpYH3ojPO/uN+LpWeCP+VFrdiO8rom/ED+r/YM92KmVuO682qdIDf2hGmRf8rafFxbf5c99RbqsOPeHrffHeG1eSMb/1QZUV5OeuiwGv4EPh1Tm91/XrSZokKjZqLHxHoXwEwnBw/u3RP0en8/co3MYQJflwxPManE9ValB6RvllRntqXiu8Ig2DPtFKK68MAaadEzB4tA5aq2WgeNVF4tfEfNA0atJZDIAom75IRpI9ZqFZpLGohHpnVirjXIWFAnX2dfI3VnhzUOGaoWaYk+4BU4slSpUYy5ZprGGwmTsfK8uhbWGujsnBYeVjnG4q6BvjfONyJpyDTd6a6jGAzBfJMh64hg/oTOJDs8AH0G4rkJQPYBHXUOWnRLOAq4jQ0N0dMWLe2B2hsVbZ24atps7ZgEn8r4Na3rFsh9R0ODvisB0aZz6gEe9w+g6E7gOYh/e5EtGZwxrZ9EDvmDSBD2iWeAyxKB1A0j6AtYcG+IaHNVO1Q6MssU7LXmfZ4K92qsy3eRqEoZVVmm8PgMrR0yur3BVK8Wn8P0BTdSrtVSikJueUQs7BmTxUp7MtM2wP0NWMOSNSVp4q6JPJ69MJ5+BTsKudCa1hXyS7G5nQonG7VWLWCT0m5T0It3poErizsCQwwazuv0yFTjCry9BEBhjUSR6DjBcN1INHOdMnBpziSj2zpib0cEemrQXXCu3ypLvRPqjniLBpT56FDcBrUbcS8SWDZqgTAIsHg0TW+U3hQY2EApRfxRjwQ+MMZJAqnYgHOzhbdwtnPYNJQtTgtqR5amNWgutUVyyZ9evTVh+G1WUbIyrX01sjPH9yy8Zb4SaDGypo/FpksqADy+60/wwkk0vswhIHHLaLeBql4E5eJrAOCDrsoYnOPTxejmWqEw2E5aHNxA5OY9fEyzVW2BgQqVeQgw3Ae47OEzjUWoc7MGZWvKLnnRaD1oyX/pktCe8iEs/4JTZDjF97wS3upHLGIECV9nonvMLg2X5CJcdv+Vw4hFtlTg4TTqDyez6QoPxWVjH4aamhQFb8VYjrqBmcmuYWhT5OonWGwiueRDOLQuWTqNBz0VXjejIrlMA+vMAdcBe6g4dicgcPimoHD526HTxo80T9rYNK5fbsGiUkP68OZWSi8dtBQCb6yqBvvFJhpUiHyz7+CqbD5QiPr4ZMSTtPbeNVCHtF0qBuKfzVHsQ7zz8N8iF/FdKA8+reK8Ign3ZeBcL8jfad919N+oefTy6/Pb+8HF9snv8en2j6V8fnnfXzfw==);fillColor=none;" parent="a-avhTzjWlf2piI5JXZ5-1" vertex="1">
                    <mxGeometry x="270" y="137" width="260" height="308" as="geometry"/>
                </mxCell>
                <mxCell id="a-avhTzjWlf2piI5JXZ5-45" value="" style="shape=stencil(lVzZctw2EPwavaJwH8+O8x+ushyr4lgu27n+Po2oQIk9yyb3TZamd0Fgru4B/ZDe/fj84dvjQ/Q/fn5//v3x76ePPz8/pF8eYnz6+vnx+9NP/PSQ3j+kd5+evz/+9v35z68fX/797cO0nD/98fzX/IR/XnA5u14nKvp/X34Tquvh/9/8+gL48vR1D4j3AZJrgQF1CEB0wwBKk4A8GJCrAATXIgNSFADvhnno0CUgFAb4fAxIw0V66OKGF4DuYmNATwLQXDKAJnYpYRMNQB1cwp/vA1jnOwUEf9czJJfSXbsUXTVLkucQnTffMIS3puAyPcOJa3jXunE+EXEA+Lu8NQ6XTADFIgDdnPQJoLlx3ze0FZAXQzQiqZiIS8KXAPDmG1TWiOXGLhXhSxHubZZUhS8BwDFd10bfBiC3JgY04UsABPMMKntHGw+ngGC2tSvnCzey91Cu4U19aOsojwCxG4BwjTBWFnoDCMI1AAhmSVG4RujLc94AknAN/Hl4AxCu8bqAq4DNN68Ctjx3HcABdALIK7lfB4T7Hjq5ct9DozmJdwLyfScd3DAA6UsIoHyXt/oVX1fjwbtsASLixo12SYX0MJ2GzhndeJ5OSt1lU0H153NN1+tvrtgEI/an3XBTdQBI6ibSlEugkBknzaIsVNMwtNUh37Qvq8hs9tgxEQTFxEBfKzyw53TaV86/3W6bQrt51IE9ZV+UiCBiEnU5sn1TXSQnaxS5pNpUV/aJcVZR+flU0GCves7I8YhPkDWZ6x92QPlDdInWU1xRrRSzo+mxKidySkQEReHP4He0//BP8bzB+ENfPfeBPRWymcGEf4aV8Zf9bNHl+okMTg4g7cM+P4BkFLl+6tHSRqEP7P3+fMGr9HmxfV4ectF+yxgX7dGJi/xs7Zurd62ny3i39ugg5XmRffauiviy9kHyAmsfFzu6aJ9k/Fr7LPOttS/3+UOuMn9a+3YSj1Tfc5fUzzN7zcMV8fmw39fHgvMV/uO5fpXguvAHz31xSc7L9RBdL6hoIn499zOlnOwP9Yelynrh12lu9k3Wd8+8uAxZr/2SO5Z9xSeI/Oa5H6tB+o9f3dpmH10R8b5l+81+q/hH9vt6UbNUQK19kfnQ2mslw9rrftI+b3dJr4f2U/dv5nybP9lP8p8Wlih9zT9blDKjZwmjJVmvTTw23V957idbWYzgWn1vVeYT08+0dlLvSBRqXfpnYL7WxmJk1/rJ7rU0tzTdzV73P4nFxR5Xx3hgTzp1T3I/M/tDz6siHPCduD/fvjGyI7627w97k2pqNevvK2Mf8FOqL33IeEF3tH/e4SUfGXxeI2qJwwTASJJAThFl70EjywwdElPgUWRKsVLTqEtLOlK/4r5IjuaSWlLlKABA7eoUlugZupTAJwvPDJB9pRFqADjRaklfG0NqUzFw6wGAkssmVw0MULUJwUzkduhm7pX7vgWo7FVcNw+t2u+p75iHlnzbqMFngLFc7SIgmYnnGSDymHcC9CyPmkYAup5HRvPQQ088ebzot07mNmIYofAEASLm71oUmBhx9ZN9AhULZmOV+wFAEjUAKruCvFWTBuRIv3B9A0DVn1y5wUAqU4R38rfIAFURczfeVKWEMBkcncMWtrdrtOcBIwBBiZ4bh7tYgyaJo5KSVhm7Dcisow3N20HjqPEBIKglVVMhtJIAIlcCA1T+Ln0xlTcApZ2D+lV6Bi2GgPtxhQhylAzyR5Ow4eUdgFf29wagSjvoH+UZNFhdNXCZ4wEA5d4ggHTbAy2fakFr5WsJACiNZlJAarqRb9UQY9NY3gBUezJJ4N410BarcwALJG8FQPEM0EAmGrrxBg8kJtmLVPpABOm6FABKigATDAagtJ1WDBnIMpEBwGwgLz53G1C5AQJA9cZgj5RbzwCds8YZwLoGACKmQSCT+QZFgcAg+Ry0hg0Kac8hKdIUuT4AoKYaIJ3VAJQMNhdAPDTJEJ2uZoiuEsoBoAsoACjlZgZkYEAUzjdDnp4hSq0QSYWGOV0PN/o2u3yjHqgWDgCqDwCoBgu5OlBe0noGAJUEriEFPdQb6ipPFJlhJagmA2iYeGh6ZjfMEA6JJ4qDQ92nu0nIhWoqPsyYsukx6Gx2aFuDLLsA1L0vocSoVIkOjyYRKGKq5xtmFH0ilQJAs9Cqb3ugS6UrkFXfaASA2OiJ+oxOm64aob9RiQwAcm+0XOpW5jAXJtDUqfbnlV4sAPpMpdgNc+UDnWwUmQ8AkkJKkZrv5FT0DXoIM5WSvXuXqJ1vcIMFCuKVL5l7bmBF6jLTZOj7hwZRUxd2h7kJBCooJ/HezBrmbFFvE39FlErFfIi9b+QTtdLsaxryIQCgViBpfRa+UfZLSkWHXOMJY9KVfWqN+4YpRZ2NTdOXdM0CwNOlji5bY+QZ4jSxrqO8mPrmlVydK4lmRT2XmembvkFfxLEFIp4UCFOC5t1R5a3R3P7Wd7MA4Mtf+l7zrLvmUn1UzhdY7g/bBakjAMtqJwXCDLBClJR9mIl4CJKBT4JOV8a8jDi0ZHRpckiWBXtWvqVa1E3O6LJx6Kb+6BH6JOeZ7FV9gz11lFUKP73y8KFKGacX1n2KFANeOeqWteVItpvXjrKM5DkB3EdykuMctPx0BzKu2nhEQGk9UbLDZigAvlCN7Lp5FWD1fUccve3330utsW03bF/t1cgUzf5gezWxQ69PM2Iv69PkBpHs1RXUltiftbAPKkH+fGIflvJ6cT3e7r9SYuvgO0Je1r7a7f6rK0iw92yv/GGyDkrR0t9q5f3X/gySQt1vlCWjGi08yvw8KQr1aPKKWTX+kLRiGzi/ZVlUQWioqGbZWcOeCYt8x6sMLnhFvosEvtQ4/0tZvhsSqHX/xuOUKqdasPe8HjU2s5OLpq+oF+4gdH2EPbW7TapMk+yR9iDzZzEjgq2A37Y389cuuR+oIfUzXepwsKd47FLoK54pTZdKIphn589XZCAPvlOt+6vcuZ4Oqf/mzuc7ZH0HEeY3Tb1MKLmySD5vuYgIy4UrMHpcOUQtTKXny0hqSSaHok9XmndOfK0ATEBOXW+9XqsmNADQVcLzd7tvvNGlJvierwoFfWsmm0Fw2JSaI0AynK/uehv88PqG/qenL19eXvB/+3d+ox+/evnfANL7/wA=);fillColor=none;" parent="a-avhTzjWlf2piI5JXZ5-1" vertex="1">
                    <mxGeometry x="561" y="100" width="557.25" height="357" as="geometry"/>
                </mxCell>
                <mxCell id="a-avhTzjWlf2piI5JXZ5-46" value="" style="shape=stencil(lVrLchs3EPwaXlF4P86O8x+ushyxokguWUnsv09vWACJ3t1e8kaJPVxgMNPdGPIUPv14/vL96eTtj4/3tz+f/j1//Xg+hd9O3p9fn5/ezx94dQqfT+HTt7f3pz/e3/5+/Xr5+/uXBbm8+uvtn+UTfl7ifDAhLFHe/rr8xxpr///H7xf8y/n1Fu9NZbxvEu8YnxXemjjjnWl1H++aiWXCe1OcwBfTZnwwWX1+Nn7GR1OywEcT7IRPpkaB98bP+y3GKTzSnSZ87Qe4ia8m5QneTBDpKcbOcDzPlX184moAvonlIHlzdpwzVZRb6MkeeG+ySH8w1s34YJJYjzdxzuZyfqI8RzEOfDJJlY9JtJ5sqsRTt7gq28uaQutvponztatucSYnhffzfpHhJNfj2oxPB59vCY/+9BI/108YT7wT73sG7sSjYkU7rvYbsmminq0Jcz5DM07Ug+X2jc4EuZ4610NEB4l8OuP9jM+S/lEtc35iNU7RIfdLsv2J9/Vj8p1/d/Bl7pcUJR0G44idc6/wHXye+yVVE0X+I7N5xgmKfMbOfgM/MrDDt3Guh6z5KrMa5dwraof/3Zz/XGX91F69Q72crJ/G9VaCPN+13JXUDcJ2gOt8OQJK77k9AQ60pCZLCIpCNVqd1EhISpqTVIdMbQckrooaTVNdhmOb91CzlFWoSprrtFaTle2ArMQpoOFkxJLQ+WHOUnNS+RbppgAkWjnR2I3VCIhS+9AMZc5SQ/OrANT+XEutSLWBGJFdabXvajtg5aYRUJQfSixQDS0lDi6Uzlc3AcrwQpDK6glVbBqK1Ngz6jtEjFyuR4/ILLMIKGITUCWuvtaZc5tXYYxWS7KCBaBLiZYEZRBLgjCR9UIxqZsBlIn3oKsP0uToqHPntm1xwDHRplN/5nYAWni2s2g5xQI5dPW7aWrld3Ji+gZtNCVwuVfODTEp6oOgMRs3KdHF8g0QXOlUgOdLFNhYXRKggeTiD/h+0UAKCL2ltgMKk+uBZpXKRqM0adzwdp2zhGcqZ4gF0NWiJMka1ffBwQgY7m87ILLZw1Eqc1UT39ayvn3hXNvcQChHp5ZUebqBDqlqSa1fp0eAk7WEdiG+Tzg45cg8XxlAPFWcNFrekSeO0hMvpEKme3TIdkDmmVTUmrUQ41xLsciDQwClNSZ5cCB3ovvo+yBpO6AxCUAnrUpr44ODElv9BLIz0Hqv9jBGAyMgSea70fERAarSa+JHeCmjixmhTYyRwF4A3VB8lQOz9cnhEiVPblUbcJqyNkCuNCTxuvoyC/X1nr/XQY7GSLX78e2AwKqIK0JU1Qc7Mze1y7pcV/4e1xx5U1wx2cFobs2V11npHhvzMBItJ7IEvmfDJGV3EVkSdtkNkLhAmtgvFHsaSqWa5TAVCktWPUteLZmno/ARahgc+9vX2XdVpsGzPdTDmOL4HhBkfnLro/0rXpn6Rb2JviRVQLwpn14OI9dmVX/3AK3PjI9qv67PEq94NSyBnw+MVxYMF4bKeFU/qXA+sUA1rEp8f3b6xrO6Ijlp8FJgLTjAe77vHOAt50fj4VJifQRf2Ukd4DNbNdfVcxuf2FLAOyp8WFG05AdYoNV3dUHd+y1Pa50epzQezbmutNv4yvxmpdKH3IcIV7zitzC+y7gTH9ncHOADX00P8BDth9bjmN8O8KtxlsZDPusj+4V81kf2u3w3FB/D20f2u8hnewSf+vjwTnzkS/UB/vC7eby4frH/7fzycvldwO37/EMA/OvyI4Lw+T8=);fillColor=none;" parent="a-avhTzjWlf2piI5JXZ5-1" vertex="1">
                    <mxGeometry x="551" y="490" width="265.75" height="231" as="geometry"/>
                </mxCell>
                <mxCell id="a-avhTzjWlf2piI5JXZ5-47" value="" style="shape=stencil(lVvZchw3DPwavbJ4gSSeHec/XGU5VsWxXLJz/X3AyJzdacz2rN50NHY5JAh0A5iH8u775w/fHh9y/P7j5fn3x7+fPv74/FB+ecj56evnx5enH/bTQ3n/UN59en55/O3l+c+vH19///ZhIudPfzz/NT/hn1e7nkLJ0yrHf1//UkOP///h11f8l6ev1/gYpAI+y21809A74GMh+BFUd/gSGvv8EVoEfK0E38MogE+J4FvQtsPnMNh6JAwFvGSCr7ieHNIg+BL6fj0pKNvPHJoC/ucHHONTaAXwjfhDM3/A9QjZT9EgEfCVrF/sfDPgM1m/9KACeLafhk8d8FEJvoWK64/seQXXH4MSfxDzhwp4dl5SgnbAC1t/CTECvrL1JL+eQu6XxNAG4Fl8qBpaAvzPAznGjyAC+EjOt/ZQcT2R+HO188X1ULyE6tbD8DUInhfFlzDwvE7wEf2N4vM6njvx6WD9bP/NffXh/vMtuq7Hff5WBt73uALMMd7iA/oDu1+l4Xr4fS+y0sMFT9df3xafS1nh8ipfsOe18+2AZ/G22HIj4Ds7r4jr4fk0K97fEgp53jxCH4DvxN8MD/Gt8vX0Ff4u+EriVW4YD+ty8Fv4vM+PEjJbjwQZgBfiP/b1GgGvbD9tO/bnZQGPnO88HgH8YPufMd725VDH+ITxv4dO8tG8rvv9HyETf04aRgM845OGj/v7qCEx/AglAV7IfqYeWgW8Ev9Jjn8mC4jsgbfzvDLo7AkEGXdKNESbAVK4RGOuGaSMBowEpepIaKaszwySoEEjbppMVcC2FhpH7d95oAEjxrYASHyJRyIzAE+a28AMjJrBtgr/hi0VXRk0dg7RJTMLZ8xbzTc7GrBwoZiN7X5UctBePVi8J86ta0Ou8I2EU682lIYXCz4V8crk87qKW3aNNBx1l73T+sZjObZ2+wqvTN6implylRxwW+Rnwxcux3A/Dc/kqqzYtuErvWWW/fb7P9Mrkw9rt6/wg6y/Lm/c8C0IWX9FNTlPkNEzd16d3peyTmfDb3roBj4D3vyZ3HinDg0/GL0Jfe8Pkw8yeoBsy/gmS68Z2UrZgt5xAEJ2Zvy3soCF/mD8muY+VHuGH+Q+JmR/xvdZecTExd5/TE+w8kVE9W94JeuJjk03mmMislHTT5mupzq8kvO1fAHVvkEzUkR/Nr3IEpKJTYdXcr5xkYCN3UeaL6JTG2ll8bvxSvcT8Xnx3zvxhfq/x/NyrscLLZcd4Vn89/hGy60e36lc9fhBy90eryf+CXiJND57fKJyzPmnZMpPnP/P+h/Jd+5+GZ7FW3d/pa6IcV98EKFqxsUfabQ85aqPhmc6wAjuPn5KX3r3vngrY+3wffHc8Cw+WzaEaoHScofLLy2ujHwDXwC/1fvvy3ctU39OWN1phfIBj6+Lkd6Jl9W/uhPfaHxzfKB1Gt8SViNmf4meL/CTS//qBh74bVPqn44v9UjbbRn5tuFZPNyaWRs+UT7g+KHhBys3hQH4TPWg46u9UD1YFhu/wrP8vmXPDW8Mn+Ih/hi+s3Ir8v8ulD84fWF4Fp8r+n9v9L44PWX48Ra91vvqn9zA4/l2Wglq7rwG5c8Nq+ld6f3tGA8Nz8rvI0SoPkbabh5YohmJlmgU1294Gv8jVvtGXiWYO2tAo6xnurMsZQY0xRSsAY0aCnuG6pZUKUlP4pYk9BantkTUZtDoNUt9RZErA1bXSQNLnKPzOrCrM4+xcv+twjdQAzNgdd3JJWBJSltRFnxxSUov52z17Jekkd7OOSuyX5Km1a48NhDki8rHEWYA2B+c5rP+D0QkM2CKeF5pWFJZG31soBhTzYDVkErCIpsZsKRZElZRtdIllYxNU608zZbVlLkyYEFgljkiGtDClmDUUFlc5tigYePRDFinqXS3JKFaqwxsdZsB600VxbaFGbBAVjeytRk0Wp6rCad/lLfvasbxIjNghMTPG5gBqwD6gQbtVGJWwY6iGTANWxuOqJkBEwm1r3xzZcCCcR2uKdfpLonT7WbA8oM4IaWDFj6loNI3A/bQJry7+4bGSvMNa8lmwHoFJl3xximd/TAtCt0LM2Bq38QlDK+o0s6in4YzA/bQzfUuzYBl0eaYgBkwRmyCDi8Qz6KmuMA1UuQzOKahoOd/alGc+50sSpz78X0ynQBK+OTojMiDtDIDRoCMaYP21EFv9WTC4Bz8ko6K3cKTyGS0823h2EghTgsIraeMgX3qk0w93PyUFqrQjbJB+18z5WTqc1CkNVr7PBgZHtw1bMXI7zsdkrA9QebaqGuYQQONIjTxTjIC7LvyxrO4h850MMcMIFOb9GOtSXO1CAbxzADYt4ldVoxXl3inmmbq1Q1Pnsh7MxAw4PUGbW5cSGimnuwFKgh1TSwfG/SDkhKTr2YANfae6YjXDCpgkChdV8dnTqp6k+7sDZryO92xDn5Sx9SB96E1Wvif7OVNlVszwNJqpYxpkhGYbMuUuU4ysnfvluisnbpZ5clwWCBTFJfGoegVVTfN13m/OPoOUuOjUgcWQsnDkQV/KePIIq9O0d0WiQbYA4uqvDB1YDFobjyy4P3IIwuhVZcji0J7vEcWvAt4ZMH72gcWc9L6bX5VOh3t9c5+GZ6+8zqdTFOouvEUPt4xOes+JBQ+P6WKObVEnl4GdoBOJnJ84LwUoW/FcuhR5kZryD5bzLEtnsCAbs05qTdl7TlWzJ6hYe3yMjl0iz1BtpitP/bQrgpxmSy+RRlhkDgpHd3QilnbDFjRWV3p5WRYcTL7/S6lTutNnoknPp2tyT104/OZCV0jCW0omnbAqVc+xDq1A8wGV1pOnWVyN+rLevDDvSKSCnVvM8jwDJkS69l9qGjAAtlw1dGUaV9rtlz8jDYzKG6SNdHiznBF5xTpjTN1AjXkxF8dMrEBw5d8tL4PbBby0X3TJtAs568GmDRBDUjvsykT4PmDFkZNmMBw5NabuFXUgVTSaerpBYdFOuVkJmNAJHeaqbrrHzUajUz1gFrctNqtQhko5EZrJz3iq22NBjvTSFAFbpSB+leVhfJP/6qy0Fbt+avZ9sPlve5PT1++vL4Wfv1/fA/c/vT6Dnl5/x8=);fillColor=none;" parent="a-avhTzjWlf2piI5JXZ5-1" vertex="1">
                    <mxGeometry x="863" y="430" width="258" height="297.75" as="geometry"/>
                </mxCell>
                <mxCell id="a-avhTzjWlf2piI5JXZ5-48" value="" style="shape=stencil(lVrJcls3EPwaXlHYBzg7zn+4ynKkiiK5ZGX7+zRC44mvQTbJqhwUcprGMkv3DA7p04/HL98fDtH/eH97/f3h76ev74+H9MshxqeXx4e3p3f8dUifD+nTt9e3h9/eXv98+Xr8/+9fhuX464/Xv8Yv/HPEteAAGf/5f4+fVOfT/x/8erR/fno5tfculTvsrbl+l725EO6xx9f9HvvsUr7HPrrq77H3zu75/dqctXvsqyu83xCFfXaF7zcFYR9dTGRfvLD3zvN+a79sX8wZ+0M3YV9crjt7mxd43j65YGRv4nyKd31//s0Fsf4Mfw5kX8T6c3Utkf3PgDhvn3k93WWx/pz4vrprav3B2d6fAyK6CoDnAwWgCQ9N8Oj9jYXgknChZC4XBpg401Rd3PtciPOT84DiQmGAiShIibNWSDPPnAcgTWQGFHGsCWeSGNDVHhBo+0AOeabuswA4mgUGqFBGpGTPgJ/J6TwA90CA4ry4uIivF0AU0RATRxsARZxSjK4nBpjw1hjmqW8AJGDhGhEJozIgCtcInSMaAJUyAAieAU2cUmicAwKqqDglfJ0qA4rYNBbAWcNkmhmHSAHUZJrBNaXOAFN7yPNMNkB3Ue0huxwYoNIMArLtTwl3r2oPAGkfovAuLyIOWag1Bpi66cjsBQ6f1abh3vuLQ0ipEAWgGAOaSDMAUDKOSDMia4zysb8HpIUkQhSATKcE79L/QqwMaOLiOieNj1R4wd7ontssMBfsi2f7Lm4Njkwb7rOmniflXK1QLKpYf5spcbMPswRfsCcOiXKXRPS3We83+yRveKNcmz1YunBSm5Rxsy+yFC6cEwzCi/NEMkxsr+7LJqXe7E3eF36N9ttcVaTc1b0/py6TaWVuMUic/H0qy7BvipQ7269/sErx+wuHz8ha8vcDrT/J+83MEmCvRAVKB+03S5KQWXPlMlPSBfu090+ogCh/n+hp3jzkPBecGXmzN03JXab1N3m/i4bKfebs85xoZtdpD1WlylhkolnC9KgL9n6/ngKap2oSx3vJmg9NibXZF5l/AvPeokVy4B4FVHAV97VF32bfJAH0nB+GKhf+6V0hDR4kdUIBJo2v9Zbn/FPTrGgX7OP+/GuWTQq/9IjK7EpdsKf8VpEh5XrY3qQIX+3bPOEb16+Z6HKepnnl4g8WZf5c/NOSVFmB66PlSZUvxG/Y8xmr85ML9sRnTPOxJR9amyu8LZ9bl4psqV/NTz10W/1tQdYX4/zTojzPhb+1JOtFWJp0rcgu4+jY7G+gacYEYUIu10zKaKgx3xigGmOrQGxNXsKqWVuXUQlJS7Sma9oEhdoWQFXCpHNi70EKh1EJCgOqiOS1ndGjbFwNOZgYoBpXg6wQIElf+lB3JwClWUfHeQFIemAcDx2LVHvoHA8AqIQHPUWqGADFQIZA2qf4XqRkguIhzgWA0hCQJIH2oEkmNEYMDFABBBFAEddNpu0PVn8CqLrZXcm9m5xmrN10AIpu19fOgC6OtSxcp3c9cFiKGwAqREvivmzX7BpktHAH3sv6XxZBehXRZ3q/FQGKSUUU21AieZ0s9S5HM3XpvwGQxVWABVKfpXdZtaotMaTdCbwu3+Wwdc34JosQmB27U5WdVlA7Ene9SrEDbkfqF5lGNbCtMF1F8lN02+qS/HTGB72rewLUdYMA/I4YH+qiilIQNq5aXg6lwNgoD4A9BLEkUDYSnVcITcsccuBYKh5a4bYCPlG0GL9XiWNlSQawYupHj12pTfeFxQVZSHHqJOXHgwKxaQCI0Ng2HjkPCNxeNpPNoMF3FnXSRSHty8gVEaJCFADiidBLqrZ/sJETQaYatIhgVnBxOvwlAD1TMC+LUN+GXCeaNatNL6UayVM1JZAYE72E0CodAGrbVz2v7I3HXlVPdfvCHmrQm+48pEVhVdT1g1yctIbkaADkgnpDRc82OjvfICCqueWXdsaV9twZRNal/RzC5Lhv3UbW/HiQi707Za0iBrmgLuw2PLvxssGYVRttkIv9ksDJVV8JAL8MItS5IiSIDCQt9NcoTUm29nplfpKuZPzCY9fxQkXlskUUxCZZ3Jpeo24vDcFKS8qyn48SEZaxq/Sl4CJNUYPONIvWCjq9jl7G3vnGRF6RgcbHGrbnGzeSgSvPQQAItCT9Bgb8hLpMV97xrAzoylsk8B2WsHowmthZmyxBoEfUuTP5nmVllVVmDJAj6jwW6dngRjQq14MP8GjOF9InbOm0RBn8sCe6F6ZTXVIOdJ5BC4eyvDWbnZ0bpYyXgxvwNKoJXr4OXLUVi2j88fEU99vT8/PxJe/p9/x0Fx8dn/2mz/8B);fillColor=none;" parent="a-avhTzjWlf2piI5JXZ5-1" vertex="1">
                    <mxGeometry x="1149" y="428" width="229" height="265.5" as="geometry"/>
                </mxCell>
                <mxCell id="a-avhTzjWlf2piI5JXZ5-49" value="" style="edgeStyle=none;html=1;entryX=0.151;entryY=0.224;entryDx=0;entryDy=0;entryPerimeter=0;" parent="a-avhTzjWlf2piI5JXZ5-1" source="a-avhTzjWlf2piI5JXZ5-52" target="a-avhTzjWlf2piI5JXZ5-45" edge="1">
                    <mxGeometry relative="1" as="geometry">
                        <mxPoint x="645" as="targetPoint"/>
                    </mxGeometry>
                </mxCell>
                <mxCell id="a-avhTzjWlf2piI5JXZ5-50" style="edgeStyle=none;html=1;exitX=0;exitY=1;exitDx=0;exitDy=0;exitPerimeter=0;entryX=0.423;entryY=0.14;entryDx=0;entryDy=0;entryPerimeter=0;" parent="a-avhTzjWlf2piI5JXZ5-1" source="a-avhTzjWlf2piI5JXZ5-52" target="a-avhTzjWlf2piI5JXZ5-44" edge="1">
                    <mxGeometry relative="1" as="geometry"/>
                </mxCell>
                <mxCell id="a-avhTzjWlf2piI5JXZ5-51" style="edgeStyle=none;html=1;exitX=1;exitY=0.3333333333333333;exitDx=0;exitDy=0;exitPerimeter=0;entryX=0.752;entryY=0.224;entryDx=0;entryDy=0;entryPerimeter=0;" parent="a-avhTzjWlf2piI5JXZ5-1" source="a-avhTzjWlf2piI5JXZ5-52" target="a-avhTzjWlf2piI5JXZ5-45" edge="1">
                    <mxGeometry relative="1" as="geometry"/>
                </mxCell>
                <mxCell id="a-avhTzjWlf2piI5JXZ5-52" value="Evaluator" style="shape=umlActor;verticalLabelPosition=bottom;verticalAlign=top;html=1;outlineConnect=0;" parent="a-avhTzjWlf2piI5JXZ5-1" vertex="1">
                    <mxGeometry x="630" y="-130" width="30" height="60" as="geometry"/>
                </mxCell>
                <mxCell id="a-avhTzjWlf2piI5JXZ5-53" style="edgeStyle=none;html=1;exitX=1;exitY=0.3333333333333333;exitDx=0;exitDy=0;exitPerimeter=0;" parent="a-avhTzjWlf2piI5JXZ5-1" source="a-avhTzjWlf2piI5JXZ5-57" edge="1">
                    <mxGeometry relative="1" as="geometry">
                        <mxPoint x="1250" y="630" as="targetPoint"/>
                    </mxGeometry>
                </mxCell>
                <mxCell id="a-avhTzjWlf2piI5JXZ5-54" style="edgeStyle=none;html=1;exitX=0.5;exitY=0;exitDx=0;exitDy=0;exitPerimeter=0;" parent="a-avhTzjWlf2piI5JXZ5-1" source="a-avhTzjWlf2piI5JXZ5-57" edge="1">
                    <mxGeometry relative="1" as="geometry">
                        <mxPoint x="986" y="650" as="targetPoint"/>
                    </mxGeometry>
                </mxCell>
                <mxCell id="a-avhTzjWlf2piI5JXZ5-55" style="edgeStyle=none;html=1;exitX=0;exitY=0.3333333333333333;exitDx=0;exitDy=0;exitPerimeter=0;" parent="a-avhTzjWlf2piI5JXZ5-1" source="a-avhTzjWlf2piI5JXZ5-57" edge="1">
                    <mxGeometry relative="1" as="geometry">
                        <mxPoint x="670" y="640" as="targetPoint"/>
                    </mxGeometry>
                </mxCell>
                <mxCell id="a-avhTzjWlf2piI5JXZ5-56" style="edgeStyle=orthogonalEdgeStyle;html=1;exitX=0;exitY=1;exitDx=0;exitDy=0;exitPerimeter=0;entryX=0.462;entryY=0.756;entryDx=0;entryDy=0;entryPerimeter=0;curved=1;" parent="a-avhTzjWlf2piI5JXZ5-1" source="a-avhTzjWlf2piI5JXZ5-57" target="a-avhTzjWlf2piI5JXZ5-44" edge="1">
                    <mxGeometry relative="1" as="geometry">
                        <Array as="points">
                            <mxPoint x="390" y="890"/>
                        </Array>
                    </mxGeometry>
                </mxCell>
                <mxCell id="a-avhTzjWlf2piI5JXZ5-57" value="Admin" style="shape=umlActor;verticalLabelPosition=bottom;verticalAlign=top;html=1;outlineConnect=0;" parent="a-avhTzjWlf2piI5JXZ5-1" vertex="1">
                    <mxGeometry x="971" y="830" width="30" height="60" as="geometry"/>
                </mxCell>
            </root>
        </mxGraphModel>
    </diagram>
</mxfile>